<?xml version="1.0"?>
<svg xmlns="http://www.w3.org/2000/svg" viewBox="0 0 64 64" width="512" height="512"><g id="Call_and_email" data-name="Call and email"><path d="M61,5H15a1,1,0,0,0-1,1v5.893a3,3,0,0,0-3.456.551L7.716,15.272a19.022,19.022,0,0,0,0,26.87L21.858,56.284a19,19,0,0,0,26.87,0l2.829-2.828a3.005,3.005,0,0,0,0-4.243l-8.486-8.485a3,3,0,0,0-4.243,0L36,43.557l-1.414,1.414a7.007,7.007,0,0,1-9.9,0l-5.658-5.657A6.963,6.963,0,0,1,18.006,38H61a1,1,0,0,0,1-1V6A1,1,0,0,0,61,5ZM20.443,28l2.829-2.829a3,3,0,0,0,0-4.242L16,13.657V8.2L31.736,21.879,17,34.06a6.966,6.966,0,0,1,2.032-4.646Zm18.213-3.9a1,1,0,0,1-1.312,0L17.674,7H58.326Zm-5.39-.895,2.765,2.405a3.016,3.016,0,0,0,3.938,0l2.765-2.4L58.219,36H17.788Zm11-1.331L60,8.2V34.877Zm-32.306-8.02a1,1,0,0,1,1.415,0l8.485,8.485a1,1,0,0,1,0,1.414l-2.122,2.122-9.9-9.9ZM40.242,42.142a1,1,0,0,1,1.415,0l8.486,8.485a1,1,0,0,1,0,1.415l-2.122,2.121-9.9-9.9Zm-16.97,4.243a9.01,9.01,0,0,0,12.728,0l.707-.707,9.879,9.879a17.022,17.022,0,0,1-23.314-.687L9.13,40.728a17.023,17.023,0,0,1-.687-23.314l9.879,9.879L17.615,28a9.01,9.01,0,0,0,0,12.728Z"/></g></svg>
